<svg xmlns="http://www.w3.org/2000/svg" xmlns:xlink="http://www.w3.org/1999/xlink" width="600" height="400" viewBox="0 0 600 400"><rect width="100%" height="100%" fill="#DDDDDD"/><path d="M118.00 223.25L130.74 223.25L130.74 202.23C130.74 195.22 129.65 187.31 129.10 180.75L129.47 180.75L135.29 193.68L150.76 223.25L164.50 223.25L164.50 163.92L151.76 163.92L151.76 184.85C151.76 191.86 152.85 200.23 153.40 206.51L153.03 206.51L147.21 193.40L131.74 163.92L118.00 163.92ZM196.81 224.34C208.18 224.34 218.74 215.70 218.74 200.68C218.74 185.67 208.18 177.02 196.81 177.02C185.34 177.02 174.78 185.67 174.78 200.68C174.78 215.70 185.34 224.34 196.81 224.34ZM196.81 213.51C191.25 213.51 188.52 208.51 188.52 200.68C188.52 192.86 191.25 187.85 196.81 187.85C202.27 187.85 205.09 192.86 205.09 200.68C205.09 208.51 202.27 213.51 196.81 213.51ZM246.13 223.25L259.50 223.25L259.50 178.11L246.13 178.11ZM252.77 171.47C257.32 171.47 260.51 168.56 260.51 164.46C260.51 160.37 257.32 157.55 252.77 157.55C248.31 157.55 245.04 160.37 245.04 164.46C245.04 168.56 248.31 171.47 252.77 171.47ZM271.24 223.25L284.62 223.25L284.62 192.77C287.44 189.85 290.08 188.40 292.26 188.40C296.09 188.40 297.82 190.40 297.82 196.95L297.82 223.25L311.19 223.25L311.19 192.77C314.10 189.85 316.65 188.40 318.93 188.40C322.75 188.40 324.48 190.40 324.48 196.95L324.48 223.25L337.86 223.25L337.86 195.22C337.86 183.94 333.49 177.02 323.75 177.02C317.74 177.02 313.56 180.48 309.55 184.58C307.28 179.75 303.46 177.02 297.09 177.02C291.17 177.02 287.17 180.21 283.44 183.94L283.07 183.94L282.16 178.11L271.24 178.11ZM360.61 224.34C365.70 224.34 369.89 221.98 373.71 218.61L374.07 218.61L374.98 223.25L385.90 223.25L385.90 197.41C385.90 183.57 379.53 177.02 367.98 177.02C360.88 177.02 354.42 179.48 348.68 182.94L353.51 191.76C357.88 189.22 361.61 187.67 365.43 187.67C370.34 187.67 372.25 190.22 372.53 194.22C354.69 196.04 347.14 201.23 347.14 210.69C347.14 218.34 352.32 224.34 360.61 224.34ZM365.16 213.97C361.97 213.97 359.97 212.60 359.97 209.69C359.97 206.23 363.06 203.50 372.53 202.23L372.53 210.15C370.16 212.51 368.16 213.97 365.16 213.97ZM413.29 242.45C428.76 242.45 438.50 235.63 438.50 226.25C438.50 218.15 432.40 214.79 421.30 214.79L414.02 214.79C409.02 214.79 407.20 213.70 407.20 211.42C407.20 209.87 407.65 209.05 408.84 208.05C410.84 208.69 412.66 208.96 414.30 208.96C424.21 208.96 432.04 204.14 432.04 193.77C432.04 191.40 431.40 189.22 430.58 187.85L437.77 187.85L437.77 178.11L421.30 178.11C419.30 177.39 416.84 177.02 414.30 177.02C404.56 177.02 395.64 182.48 395.64 193.31C395.64 198.59 398.55 202.87 401.74 205.05L401.74 205.41C398.83 207.42 396.64 210.60 396.64 213.88C396.64 217.61 398.46 219.97 400.83 221.52L400.83 221.89C396.64 224.25 394.37 227.25 394.37 230.99C394.37 238.99 402.74 242.45 413.29 242.45ZM414.30 200.86C410.75 200.86 408.11 198.32 408.11 193.31C408.11 188.49 410.75 186.03 414.30 186.03C417.84 186.03 420.48 188.58 420.48 193.31C420.48 198.32 417.84 200.86 414.30 200.86ZM415.39 234.08C409.38 234.08 405.38 232.26 405.38 228.89C405.38 227.25 406.20 225.89 407.83 224.43C409.29 224.80 411.11 224.98 414.20 224.98L418.85 224.98C423.30 224.98 425.76 225.71 425.76 228.53C425.76 231.62 421.39 234.08 415.39 234.08ZM464.35 224.34C469.71 224.34 475.72 222.43 480.36 219.25L475.90 211.15C472.63 213.15 469.53 214.15 466.17 214.15C460.16 214.15 455.61 211.15 454.43 204.60L481.45 204.60C481.73 203.50 482.00 201.05 482.00 198.68C482.00 186.40 475.63 177.02 462.80 177.02C451.97 177.02 441.50 186.03 441.50 200.68C441.50 215.61 451.42 224.34 464.35 224.34ZM454.34 195.77C455.25 190.04 458.89 187.21 463.07 187.21C468.44 187.21 470.62 190.76 470.62 195.77Z" fill="#999999"/></svg>